<svg width="16" height="16" viewBox="0 0 16 16" fill="none" xmlns="http://www.w3.org/2000/svg">
<path fill-rule="evenodd" clip-rule="evenodd" d="M1.29 8.69023L6.29 13.6902C6.47 13.8802 6.72 13.9902 7 13.9902C7.55 13.9902 8 13.5402 8 12.9902C8 12.7102 7.89 12.4602 7.71 12.2802L4.42 8.99023L14 8.99023C14.55 8.99023 15 8.54023 15 7.99023C15 7.44023 14.55 6.99023 14 6.99023L4.41 6.99023L7.7 3.70023C7.88 3.52023 7.99 3.27023 7.99 2.99023C7.99 2.44023 7.54 1.99023 6.99 1.99023C6.71 1.99023 6.46 2.10023 6.28 2.28023L1.28 7.28023C1.1 7.46023 0.99 7.71023 0.99 7.99023C0.99 8.27023 1.11 8.51023 1.29 8.69023Z" fill="#0B273A"/>
</svg>
