<svg width="16" height="16" viewBox="0 0 16 16" fill="none" xmlns="http://www.w3.org/2000/svg">
<path fill-rule="evenodd" clip-rule="evenodd" d="M14.71 7.30977L9.71 2.30977C9.53 2.11977 9.28 2.00977 9 2.00977C8.45 2.00977 8 2.45977 8 3.00977C8 3.28977 8.11 3.53977 8.29 3.71977L11.58 7.00977L2 7.00977C1.45 7.00977 0.999999 7.45977 0.999999 8.00977C0.999999 8.55977 1.45 9.00977 2 9.00977L11.59 9.00977L8.3 12.2998C8.12 12.4798 8.01 12.7298 8.01 13.0098C8.01 13.5598 8.46 14.0098 9.01 14.0098C9.29 14.0098 9.54 13.8998 9.72 13.7198L14.72 8.71977C14.9 8.53977 15.01 8.28977 15.01 8.00977C15.01 7.72977 14.89 7.48977 14.71 7.30977Z" fill="#0B273A"/>
</svg>
