<svg width="32" height="32" viewBox="0 0 32 32" fill="none" xmlns="http://www.w3.org/2000/svg">
<path fill-rule="evenodd" clip-rule="evenodd" d="M0 16C0 24.84 7.16 32 16 32C24.84 32 32 24.84 32 16C32 7.16 24.84 0 16 0C7.16 0 0 7.16 0 16ZM22.58 10.58C22.94 10.22 23.44 10 24 10C25.1 10 26 10.9 26 12C26 12.56 25.78 13.06 25.42 13.42L15.42 23.42C15.06 23.78 14.56 24 14 24C13.44 24 12.94 23.78 12.58 23.42L6.58 17.42C6.22 17.06 6 16.56 6 16C6 14.9 6.9 14 8 14C8.56 14 9.06 14.22 9.42 14.58L14 19.18L22.58 10.58Z" fill="#6DB75A"/>
</svg>
